<?xml version="1.0" standalone="no"?>
<!DOCTYPE svg PUBLIC "-//W3C//DTD SVG 20010904//EN"
 "http://www.w3.org/TR/2001/REC-SVG-20010904/DTD/svg10.dtd">
<svg version="1.0" xmlns="http://www.w3.org/2000/svg"
 width="2649.000000pt" height="2333.000000pt" viewBox="0 0 2649.000000 2333.000000"
 preserveAspectRatio="xMidYMid meet">
<metadata>
Created by potrace 1.16, written by Peter Selinger 2001-2019
</metadata>
<g transform="translate(0.000000,2333.000000) scale(0.100000,-0.100000)"
fill="#000000" stroke="none">
<path d="M13025 22352 c-58 -28 -77 -53 -145 -192 -103 -209 -181 -343 -226
-390 -28 -29 -61 -84 -94 -155 -28 -60 -75 -141 -104 -180 -74 -98 -103 -147
-127 -211 -19 -50 -148 -252 -191 -298 -10 -11 -18 -25 -18 -32 0 -7 -4 -14
-9 -16 -5 -1 -49 -68 -97 -148 -49 -80 -110 -174 -136 -210 -26 -36 -59 -95
-75 -130 -15 -36 -44 -94 -64 -130 -49 -88 -108 -204 -168 -331 -31 -67 -68
-126 -98 -160 -45 -50 -113 -149 -210 -310 -22 -36 -93 -168 -158 -293 -64
-126 -143 -267 -174 -315 -32 -47 -71 -108 -86 -136 -16 -27 -69 -111 -119
-185 -49 -74 -107 -173 -128 -220 -44 -95 -36 -82 -155 -283 -110 -184 -142
-242 -194 -340 -23 -43 -73 -112 -110 -153 -38 -42 -69 -80 -69 -86 0 -5 -22
-55 -48 -111 -44 -92 -176 -301 -272 -432 -50 -68 -88 -137 -117 -214 -13 -35
-44 -87 -67 -115 -48 -55 -117 -164 -186 -291 -24 -44 -74 -127 -110 -185 -37
-58 -87 -143 -110 -190 -72 -144 -127 -233 -185 -300 -30 -35 -55 -69 -55 -76
0 -33 -48 -134 -101 -214 -32 -48 -85 -139 -117 -201 -32 -63 -77 -141 -99
-174 -22 -33 -62 -100 -89 -149 -27 -49 -75 -117 -106 -152 -35 -39 -71 -94
-96 -146 -21 -46 -64 -121 -94 -168 -30 -47 -101 -166 -157 -265 -93 -163
-141 -239 -244 -390 -18 -27 -44 -77 -57 -110 -41 -106 -91 -198 -151 -282
-32 -45 -59 -86 -59 -93 0 -20 -42 -94 -100 -175 -32 -44 -81 -122 -110 -173
-28 -51 -74 -120 -100 -154 -27 -33 -54 -77 -61 -97 -21 -64 -48 -109 -116
-193 -51 -62 -77 -107 -108 -183 -25 -61 -62 -127 -94 -170 -29 -38 -75 -113
-102 -165 -28 -52 -84 -160 -126 -239 -41 -79 -104 -187 -138 -240 -35 -53
-83 -132 -107 -176 -24 -44 -60 -101 -80 -127 -20 -27 -64 -101 -98 -167 -34
-65 -86 -149 -116 -187 -31 -38 -71 -102 -90 -143 -31 -68 -129 -239 -143
-251 -7 -6 -26 -41 -82 -149 -21 -41 -48 -85 -59 -98 -11 -13 -20 -25 -20 -27
0 -9 -133 -231 -194 -323 -37 -56 -83 -136 -102 -177 -19 -42 -90 -160 -158
-263 -120 -182 -170 -266 -330 -556 -77 -139 -134 -226 -187 -282 -15 -16 -43
-64 -62 -105 -19 -41 -59 -113 -89 -160 -29 -47 -75 -128 -102 -180 -135 -263
-217 -404 -302 -518 -30 -40 -67 -100 -81 -135 -30 -70 -51 -104 -103 -164
-20 -23 -63 -92 -95 -155 -32 -62 -76 -142 -98 -178 -22 -36 -55 -94 -72 -131
-18 -36 -64 -114 -103 -175 -80 -125 -117 -196 -143 -272 -12 -34 -37 -74 -68
-108 -50 -55 -100 -147 -120 -221 -6 -22 -79 -150 -162 -284 -165 -265 -187
-309 -214 -414 -20 -81 -15 -138 15 -170 48 -51 204 -74 385 -55 150 16 1115
19 7280 25 2866 3 5248 7 5295 10 47 3 1008 7 2135 9 2128 4 4126 13 4349 20
146 5 166 13 201 82 16 31 20 59 20 139 0 118 -15 159 -107 295 -31 47 -87
144 -123 215 -37 72 -94 178 -126 236 -33 58 -59 109 -59 113 0 4 -8 19 -19
34 -52 76 -292 492 -375 650 -51 100 -103 194 -115 211 -27 38 -68 128 -75
162 -6 37 -70 172 -99 211 -14 18 -62 100 -107 182 -45 82 -123 217 -172 299
-102 171 -164 293 -198 387 -23 65 -36 88 -122 210 -25 36 -78 126 -118 200
-40 74 -94 173 -119 220 -26 47 -53 101 -61 120 -7 19 -28 53 -45 75 -48 61
-82 117 -109 183 -26 66 -73 140 -117 187 -16 18 -37 59 -49 100 -26 83 -64
156 -171 322 -43 67 -124 212 -179 320 -55 109 -131 254 -170 323 -38 69 -70
131 -70 138 0 7 -19 43 -42 80 -89 145 -142 240 -175 317 -19 44 -56 118 -83
165 -27 47 -56 105 -66 130 -27 69 -83 160 -129 212 -25 27 -51 73 -65 110
-36 99 -63 154 -140 283 -39 66 -92 162 -117 214 -25 52 -53 103 -63 113 -16
18 -34 52 -122 233 -24 50 -70 135 -103 190 -32 55 -83 152 -113 215 -30 63
-89 167 -132 231 -43 64 -112 184 -153 265 -80 158 -90 177 -179 331 -32 55
-58 105 -58 111 0 25 -69 148 -105 187 -20 22 -70 108 -111 190 -42 83 -114
215 -161 295 -101 172 -185 328 -209 390 -26 67 -95 187 -132 231 -18 21 -40
62 -49 91 -18 63 -59 145 -111 227 -22 33 -55 105 -75 159 -20 56 -58 135 -87
179 -28 43 -80 136 -116 207 -36 70 -82 154 -103 185 -54 81 -107 174 -201
356 -93 180 -131 241 -193 318 -24 29 -62 98 -86 152 -24 55 -49 107 -56 115
-13 15 -135 219 -135 225 0 2 -16 27 -35 57 -50 75 -118 209 -154 304 -34 87
-58 120 -95 130 -67 17 -215 -117 -285 -258 -23 -48 -72 -134 -107 -190 -36
-57 -98 -171 -138 -254 -47 -94 -120 -219 -195 -332 -67 -99 -142 -220 -168
-269 -26 -48 -65 -115 -88 -148 -38 -54 -57 -86 -122 -205 -11 -19 -48 -87
-83 -150 -35 -63 -93 -162 -129 -220 -92 -150 -129 -217 -156 -283 -13 -31
-48 -97 -78 -145 -124 -199 -161 -265 -238 -422 -78 -160 -159 -303 -206 -366
-12 -17 -36 -63 -52 -102 -16 -39 -50 -103 -76 -142 -25 -39 -67 -115 -94
-169 -26 -53 -88 -160 -136 -237 -180 -285 -215 -345 -339 -589 -127 -250
-127 -250 -211 -330 -77 -74 -84 -84 -95 -136 -15 -76 -58 -163 -114 -232 -47
-58 -61 -83 -92 -171 -9 -27 -47 -95 -85 -151 -37 -56 -82 -132 -100 -171 -18
-38 -63 -116 -99 -174 -68 -108 -102 -174 -114 -222 -3 -15 -28 -49 -54 -75
-61 -60 -98 -123 -122 -209 -15 -52 -30 -79 -63 -114 -70 -72 -93 -109 -126
-203 -17 -49 -52 -123 -78 -165 -63 -104 -162 -283 -236 -422 -93 -178 -132
-242 -172 -280 -48 -45 -81 -112 -88 -177 -8 -71 -25 -100 -96 -162 -67 -58
-79 -76 -117 -183 -27 -73 -58 -131 -99 -179 -12 -15 -41 -64 -64 -110 -23
-46 -67 -118 -98 -159 -80 -107 -112 -181 -125 -287 -7 -49 -9 -97 -5 -106 8
-21 61 -54 107 -67 53 -14 238 -25 390 -23 74 1 540 4 1035 7 1371 8 2026 14
2065 21 19 3 51 8 69 11 82 13 154 68 222 169 18 27 63 82 99 120 36 39 78 96
94 126 16 29 58 88 92 129 35 41 86 119 115 173 35 68 88 143 172 245 130 157
178 224 222 312 15 30 52 86 82 125 30 38 74 110 98 160 24 49 59 104 77 122
60 58 149 80 195 48 12 -8 58 -86 102 -173 43 -86 102 -200 130 -252 29 -52
114 -219 190 -370 77 -151 157 -306 180 -345 22 -38 48 -91 57 -117 16 -50 39
-96 93 -187 55 -93 109 -205 126 -263 9 -31 27 -71 40 -90 96 -131 127 -213
129 -340 1 -113 -11 -138 -86 -176 -55 -28 -199 -40 -423 -34 -192 4 -5433 2
-5520 -3 -38 -2 -331 -4 -650 -6 -550 -2 -583 -1 -630 17 -70 27 -83 54 -66
135 25 121 72 229 148 342 41 59 87 142 104 185 55 141 63 155 130 221 64 63
68 71 98 166 33 106 48 135 124 239 27 36 57 91 69 123 11 32 44 89 73 128 54
73 117 188 129 239 4 17 15 41 25 55 16 22 118 194 204 341 14 25 36 56 49 70
27 28 71 123 88 190 18 67 37 99 101 168 46 49 62 75 74 120 25 89 35 110 96
202 90 136 112 172 135 220 12 25 43 65 69 90 58 56 70 79 94 179 15 61 28 91
60 131 41 52 72 104 241 415 51 94 126 228 167 299 71 122 163 298 163 310 0
4 20 31 45 61 45 56 72 107 95 180 20 63 40 96 89 151 27 29 67 93 95 150 27
54 76 140 109 189 34 50 78 132 99 184 44 111 66 149 207 379 127 207 162 272
180 332 7 25 41 82 75 127 34 46 90 138 123 205 34 68 81 147 106 175 25 29
53 74 62 100 33 90 72 168 109 216 20 26 52 87 72 136 39 97 131 268 221 409
84 132 173 287 173 302 0 21 57 127 119 218 32 48 94 152 138 232 44 80 97
172 119 205 21 33 48 81 60 107 13 25 45 80 73 122 28 41 63 108 77 148 28 76
60 133 103 183 14 17 34 50 45 75 49 116 72 154 136 223 54 57 76 90 99 148
31 79 72 154 125 229 34 47 46 73 95 205 17 44 47 105 67 135 69 104 78 130
78 205 0 91 -15 134 -74 201 -46 52 -76 103 -85 142 -2 9 -11 47 -19 83 -19
87 -43 133 -103 194 -37 38 -55 66 -71 116 -13 37 -46 109 -74 160 -80 148
-93 177 -133 297 -26 78 -47 125 -72 154 -42 50 -87 139 -137 270 -20 53 -54
124 -76 157 -57 87 -67 110 -86 187 -23 93 -37 118 -104 191 -56 59 -100 145
-100 192 0 28 -24 81 -66 141 -44 66 -93 170 -144 307 -22 60 -50 117 -68 138
-32 36 -68 106 -142 279 -24 54 -62 124 -85 155 -30 39 -50 82 -68 145 -47
157 -76 187 -189 193 -57 3 -82 0 -113 -15z"/>
</g>
</svg>
